<svg id="visual" viewBox="0 0 900 600" width="900" height="600" xmlns="http://www.w3.org/2000/svg" xmlns:xlink="http://www.w3.org/1999/xlink" version="1.1"><rect x="0" y="0" width="900" height="600" fill="#E2C799"></rect><path d="M0 392L21.5 407.2C43 422.3 86 452.7 128.8 462C171.7 471.3 214.3 459.7 257.2 448.8C300 438 343 428 385.8 438.3C428.7 448.7 471.3 479.3 514.2 492.2C557 505 600 500 642.8 499C685.7 498 728.3 501 771.2 489.8C814 478.7 857 453.3 878.5 440.7L900 428L900 601L878.5 601C857 601 814 601 771.2 601C728.3 601 685.7 601 642.8 601C600 601 557 601 514.2 601C471.3 601 428.7 601 385.8 601C343 601 300 601 257.2 601C214.3 601 171.7 601 128.8 601C86 601 43 601 21.5 601L0 601Z" fill="#FFFFFF" stroke-linecap="round" stroke-linejoin="miter"></path></svg>